<svg xmlns="http://www.w3.org/2000/svg" width="820" height="220" viewBox="0 0 820 220" role="img" aria-labelledby="title desc">
  <title id="title">CLOVER</title>
  <desc id="desc">A geometric three-leaf CLOVER mark: three local nodes surrounding one remote center node.</desc>
  <style>
    :root {
      --word: #10201a;
      --leaf: #22c55e;
      --leaf-deep: #15803d;
      --center: #2563eb;
      --line: #86efac;
    }
    @media (prefers-color-scheme: dark) {
      :root {
        --word: #f0fdf4;
        --leaf: #4ade80;
        --leaf-deep: #22c55e;
        --center: #2563eb;
        --line: #166534;
      }
    }
  </style>

  <g transform="translate(60 28)">
    <path fill="var(--leaf)" opacity=".12" d="M104 16A176 176 0 0 1 188 162A176 176 0 0 1 20 162A176 176 0 0 1 104 16Z"/>
    <path fill="none" stroke="var(--leaf-deep)" stroke-width="6" stroke-linecap="round" stroke-linejoin="round" d="M104 16A176 176 0 0 1 188 162A176 176 0 0 1 20 162A176 176 0 0 1 104 16Z"/>
    <path fill="none" stroke="var(--line)" stroke-width="5" stroke-linecap="round" d="M104 112 104 16M104 112 188 162M104 112 20 162"/>
    <circle cx="104" cy="16" r="12" fill="var(--leaf-deep)"/>
    <circle cx="188" cy="162" r="12" fill="var(--leaf-deep)"/>
    <circle cx="20" cy="162" r="12" fill="var(--leaf-deep)"/>
    <circle cx="104" cy="112" r="20" fill="var(--center)"/>
  </g>

  <g transform="translate(304 60)">
    <text x="0" y="86" fill="var(--word)"
      font-family="Inter, ui-sans-serif, system-ui, -apple-system, BlinkMacSystemFont, Segoe UI, sans-serif"
      font-size="84" font-weight="850" letter-spacing="3">CLOVER</text>
    <text x="4" y="122" fill="var(--leaf-deep)"
      font-family="Inter, ui-sans-serif, system-ui, -apple-system, BlinkMacSystemFont, Segoe UI, sans-serif"
      font-size="19" font-weight="700" letter-spacing="3">CLOUD-EDGE DATA REASONING</text>
  </g>
</svg>
